<svg width="493" height="41" viewBox="0 0 493 41" fill="none" xmlns="http://www.w3.org/2000/svg">
<path d="M489.728 4.718C488.38 2.696 485.684 1.4828 481.775 0.943596C480.158 0.808796 476.653 0.674 471.261 0.674H433.921V18.6024C433.921 19.6808 433.786 21.1636 433.786 22.916C433.652 24.6684 433.517 25.8816 433.382 26.5556C433.247 27.2296 432.843 27.7688 432.438 28.308C431.764 28.982 430.551 29.3864 428.934 29.656C427.316 29.9256 424.35 30.0604 420.172 30.0604C415.049 30.0604 411.544 29.7908 409.792 29.3864C408.04 28.8472 407.096 27.9036 406.692 26.4208C406.422 25.3424 406.287 22.7812 406.287 18.6024V0.674H394.964C395.368 2.022 396.716 6.74001 396.312 12.9408C396.177 9.57081 393.616 1.7524 386.337 0.674C383.102 0.2696 377.17 0 368.543 0C359.916 0 346.436 1.7524 344.953 2.9656C345.358 5.2572 345.627 8.35761 345.358 12.2668C345.358 9.70561 344.684 6.74001 342.662 4.17881C340.64 1.61761 337.539 1.07841 335.113 0.808808C333.765 0.674008 331.204 0.539192 324.329 0.539192H295.212C295.751 2.02199 296.83 5.6616 296.56 11.0536C296.425 7.9532 294.673 4.5832 292.112 2.9656C289.55 1.2132 286.046 0.674004 283.215 0.404404C280.249 0.134804 276.34 0 271.218 0C262.725 0 256.524 0.269604 252.346 1.0784C250.324 1.4828 248.706 2.15679 247.358 3.23519C247.762 5.39199 247.897 8.35759 247.358 11.9972C247.223 9.16639 246.28 6.6052 245.74 5.1224C245.471 5.5268 245.201 6.06599 244.932 6.60519C244.392 8.08799 243.988 9.7056 243.853 11.458C243.584 13.2104 243.584 15.9064 243.584 19.546C243.584 24.8032 243.718 28.308 243.988 30.0604C244.258 31.9476 244.662 33.4304 245.201 34.6436C245.336 35.048 245.606 35.3176 246.01 35.722C246.414 35.1828 247.493 32.7564 247.762 29.3864C248.167 33.1608 247.897 35.5872 247.493 37.3396L247.897 37.6092C249.515 38.6876 251.806 39.3616 254.637 39.766C257.468 40.1704 262.321 40.3052 269.196 40.3052C274.588 40.3052 278.632 40.1704 281.328 40.0356C287.798 39.766 291.303 38.418 293.19 36.5308C295.616 33.9696 297.099 30.4648 297.234 28.5776C297.504 34.7784 295.616 38.6876 295.077 39.766H307.209V29.7908H324.464C327.025 29.7908 328.642 29.9256 329.451 29.9256C330.26 30.0604 330.799 30.33 331.338 30.7344C331.743 31.2736 332.147 31.9476 332.282 32.8912C332.417 33.8348 332.552 35.3176 332.552 37.6092V39.766H346.032C345.492 38.0136 344.818 35.3176 345.088 31.8128C345.223 35.048 347.919 39.3616 352.772 39.9008C356.142 40.3052 361.668 40.3052 369.217 40.3052C377.71 40.3052 383.776 40.44 386.876 39.6312C395.908 37.4744 396.716 28.7124 396.851 26.5556C397.525 30.0604 396.986 33.1608 396.716 35.048C397.93 37.07 400.086 38.418 402.917 39.092C404.804 39.4964 407.096 39.766 409.792 40.0356C412.488 40.1704 416.128 40.3052 420.98 40.3052C427.451 40.3052 432.034 40.1704 434.865 39.9008C437.696 39.6312 439.583 38.9572 441.2 38.1484C444.301 36.396 446.727 31.8128 446.862 27.2296C447.806 32.0824 446.727 37.2048 445.918 39.766H456.972V30.1952H472.204C476.922 30.1952 480.158 30.0604 481.91 29.9256C484.336 29.656 486.224 29.2516 487.706 28.4428C489.054 27.7688 490.133 26.6904 490.942 25.4772C492.02 23.59 492.694 20.22 492.694 15.3672C491.885 10.2448 491.211 6.74 489.728 4.718ZM294.808 17.6588H268.522V25.4772H284.563C284.563 26.0164 284.563 26.4208 284.563 26.5556C284.563 27.634 284.428 28.4428 284.158 29.1168C283.889 29.656 283.484 30.0604 282.945 30.33C282.271 30.5996 281.328 30.8692 280.114 30.8692C278.901 30.8692 275.531 31.004 270.004 31.004C264.343 30.8692 260.973 30.8692 259.894 30.7344C258.816 30.5996 258.007 30.33 257.333 29.7908C256.659 29.2516 256.255 28.308 255.985 27.0948C255.716 25.7468 255.581 23.4552 255.581 20.22C255.581 17.2544 255.716 15.2324 255.985 14.0192C256.255 12.806 256.659 11.8624 257.333 11.458C258.007 10.9188 259.22 10.5144 261.108 10.3796C262.86 10.2448 265.96 10.11 270.139 10.11C274.048 10.11 277.014 10.2448 279.036 10.2448C281.193 10.3796 282.676 10.6492 283.35 11.1884C283.754 11.458 284.024 11.7276 284.024 12.132C284.158 12.5364 284.158 13.3452 284.158 14.4236H294.808V17.6588ZM332.012 17.9284C331.743 18.6024 331.473 19.0068 330.934 19.4112C330.53 19.6808 329.99 19.8156 329.451 19.8156C328.912 19.8156 327.16 19.9504 324.194 19.9504H307.074V10.3796H324.059C326.89 10.3796 328.508 10.3796 329.182 10.3796C329.721 10.3796 330.26 10.5144 330.664 10.784C331.204 11.0536 331.743 11.5928 331.878 12.132C332.147 12.806 332.282 13.7496 332.282 14.9628C332.282 16.4456 332.147 17.3892 332.012 17.9284ZM344.01 28.0384C343.201 26.286 340.505 24.8032 337.135 24.5336C340.64 24.264 343.875 22.5116 344.549 20.894C343.875 23.4552 342.122 23.9944 341.583 24.3988C343.066 25.4772 343.605 26.286 344.01 28.0384ZM383.506 26.4208C383.236 27.4992 382.697 28.1732 382.023 28.7124C381.214 29.2516 380.001 29.656 378.384 29.7908C376.766 29.9256 373.531 30.0604 368.543 30.0604C363.286 30.0604 359.781 29.9256 357.894 29.656C355.468 29.3864 353.985 28.308 353.446 26.286C353.176 25.2076 353.041 23.4552 353.041 21.0288C353.041 17.1196 353.311 14.4236 353.715 13.0756C354.254 11.7276 355.198 10.9188 356.681 10.5144C358.029 10.11 361.803 9.97519 368.274 9.97519C373.935 9.97519 377.44 10.11 378.923 10.2448C380.406 10.3796 381.484 10.9188 382.158 11.8624C382.697 12.5364 382.967 13.48 383.236 14.828C383.371 16.176 383.506 18.198 383.506 21.0288C383.91 23.59 383.776 25.3424 383.506 26.4208ZM479.349 18.3328C479.079 19.0068 478.675 19.546 478.136 19.8156C477.596 20.0852 477.057 20.22 476.518 20.22C475.844 20.22 474.226 20.3548 471.53 20.3548H456.163V10.5144H471.396C475.035 10.5144 477.192 10.6492 477.731 10.9188C478.54 11.1884 478.944 11.5928 479.214 12.2668C479.484 12.9408 479.618 13.8844 479.618 15.2324C479.618 16.7152 479.484 17.6588 479.349 18.3328Z" fill="#231F20"/>
<path d="M236.035 26.4208C236.035 28.308 235.63 29.5212 234.822 30.0604C234.282 30.4648 233.474 30.5996 232.53 30.7344C231.586 30.7344 228.756 30.8692 224.038 30.8692C219.05 30.8692 215.95 30.7344 215.006 30.7344C213.928 30.7344 213.119 30.5996 212.58 30.33C211.636 29.9256 211.232 28.982 211.232 27.4992C211.232 26.4208 211.501 25.612 212.175 25.2076C212.849 24.8032 214.062 24.6684 215.95 24.5336C217.432 24.5336 220.533 24.3988 225.251 24.1292C230.104 23.9944 233.204 23.8596 234.687 23.7248C237.518 23.59 239.809 23.3204 241.292 22.916C242.91 22.5116 243.988 21.7028 244.932 20.7592C246.414 19.1416 247.088 16.4456 247.088 12.5364C247.088 8.2228 246.28 5.2572 244.527 3.5048C243.179 2.1568 241.292 1.2132 238.596 0.808805C235.9 0.404405 230.508 0.269592 222.42 0.269592C216.624 0.269592 212.58 0.404396 210.288 0.673996C206.648 1.2132 204.222 2.15679 202.874 3.63959C201.93 4.71799 201.391 6.20079 201.122 8.35759C200.987 7.95319 200.987 7.68359 200.852 7.27919C199.774 3.63959 197.078 1.48279 192.494 0.943592C189.394 0.539192 183.598 0.404401 175.105 0.404401C166.613 0.404401 160.951 0.539192 157.716 0.943592C153.133 1.61759 150.437 3.63959 149.358 7.27919C148.684 9.70559 148.28 13.8844 148.28 19.6808C148.28 21.9724 148.28 23.9944 148.415 25.7468L135.07 0.808805H116.602L100.291 31.678V0.943592H87.7548V14.5584H60.7948V0.943592H48.3932C48.7976 2.15679 49.6064 5.5268 49.3368 11.1884C49.202 9.436 48.2584 4.4484 44.2144 2.1568C42.8664 1.4828 40.9792 0.943605 38.8224 0.808805C36.5308 0.674005 32.8912 0.404401 27.9036 0.404401C17.7936 0.404401 11.1884 0.808805 7.8184 1.4828C4.4484 2.1568 2.2916 3.7744 1.2132 6.2008C0.674002 7.2792 0.404406 8.762 0.269606 10.784C0.134806 12.806 0 15.9064 0 20.3548C0 24.8032 0.134806 28.0384 0.269606 29.7908C0.404406 31.9476 0.943606 33.5652 1.61761 34.9132C2.29161 36.1264 3.37 37.07 4.8528 37.8788C6.4704 38.6876 8.762 39.2268 11.9972 39.4964C15.2324 39.766 20.4896 39.9008 27.9036 39.9008C35.048 39.9008 39.9008 39.6312 42.8664 38.9572C46.1016 38.2832 48.1236 36.1264 48.6628 35.4524C49.202 34.6436 50.8196 31.9476 50.9544 28.8472C51.3588 35.9916 48.6628 39.4964 48.6628 39.4964H61.0644V25.612H88.0244V39.092H110.132L113.502 32.6216L117.68 24.264L125.229 9.8404H127.656L135.204 24.264L139.383 32.6216L142.753 39.092H153.268C151.65 37.744 150.032 34.9132 149.763 30.4648C150.437 36.2612 156.368 38.6876 158.39 39.092C161.49 39.4964 167.422 39.766 175.914 39.766C184.272 39.766 190.068 39.4964 193.168 39.092C197.212 38.5528 199.908 36.8004 201.122 33.8348C201.256 34.374 201.526 34.7784 201.661 35.1828C202.335 36.5308 203.413 37.4744 204.761 38.0136C206.109 38.6876 207.996 39.092 210.423 39.3616C212.984 39.6312 217.837 39.766 224.846 39.766C230.778 39.766 235.091 39.6312 237.787 39.3616C240.618 39.092 242.64 38.5528 244.123 37.744C245.606 36.9352 246.684 35.8568 247.223 34.5088C247.762 33.1608 248.032 31.1388 248.032 28.4428V26.6904H236.035V26.4208ZM48.3932 24.3988H37.744C37.744 26.8252 37.3396 28.308 36.6656 28.982C36.1264 29.5212 35.048 29.7908 33.5652 29.9256C32.0824 30.0604 28.982 30.1952 24.3988 30.1952C20.7592 30.1952 18.198 30.0604 16.7152 29.9256C15.2324 29.7908 14.154 29.3864 13.48 28.8472C12.806 28.308 12.2668 27.4992 11.9972 26.286C11.7276 25.0728 11.5928 23.0508 11.5928 20.22C11.5928 17.3892 11.7276 15.2324 11.9972 13.8844C12.2668 12.5364 12.806 11.5928 13.48 11.0536C14.0192 10.6492 15.0976 10.2448 16.5804 10.11C17.9284 9.9752 20.6244 9.8404 24.264 9.8404C28.0384 9.8404 30.8692 9.9752 32.6216 10.11C34.5088 10.2448 35.5872 10.6492 36.1264 10.9188C36.5308 11.1884 36.6656 11.5928 36.8004 11.9972C36.9352 12.4016 36.9352 13.3452 37.07 14.5584H48.2584V24.3988H48.3932ZM189.933 26.0164C189.664 26.96 189.259 27.7688 188.585 28.308C187.911 28.8472 186.698 29.2516 185.08 29.3864C183.463 29.5212 180.362 29.656 175.51 29.656C170.387 29.656 167.017 29.5212 165.265 29.2516C162.838 28.982 161.49 27.9036 160.951 26.0164C160.682 24.938 160.547 23.3204 160.547 21.0288C160.547 17.2544 160.816 14.6932 161.221 13.3452C161.625 11.9972 162.704 11.1884 164.052 10.9188C165.265 10.6492 169.039 10.3796 175.375 10.3796C180.902 10.3796 184.406 10.5144 185.754 10.6492C187.237 10.9188 188.316 11.3232 188.855 12.132C189.394 12.806 189.664 13.7496 189.933 15.0976C190.068 16.3108 190.203 18.3328 190.203 21.0288C190.338 23.3204 190.203 25.0728 189.933 26.0164ZM208.805 15.9064C203.009 16.7152 200.043 21.8376 200.043 27.2296C199.369 20.7592 201.391 16.4456 202.065 15.3672C202.065 14.5584 201.93 13.7496 201.93 12.9408H212.714C212.714 11.8624 212.849 11.1884 212.984 10.784C213.119 10.3796 213.388 10.11 213.793 9.8404C214.332 9.5708 215.276 9.30119 216.489 9.30119C217.837 9.30119 220.533 9.1664 224.712 9.1664C229.834 9.1664 232.8 9.3012 234.013 9.5708C235.091 9.8404 235.63 10.784 235.63 12.132C235.63 13.48 235.091 14.2888 234.013 14.5584C233.069 14.828 228.89 15.0976 221.342 15.2324C215.141 15.502 210.962 15.6368 208.805 15.9064Z" fill="#231F20"/>
</svg>
